<svg width="665" height="137" viewBox="0 0 665 137" fill="none" xmlns="http://www.w3.org/2000/svg">
<g clip-path="url(#clip0_6_16)">
<path d="M150.224 55.3054V81.7596C150.224 85.6234 148.184 89.2146 144.826 91.2398C142.003 92.9425 138.203 95.1119 133.711 97.3725V55.3054H150.224Z" fill="#F44444"/>
<path d="M132.869 55.3054V97.558C120.764 103.691 103.671 110.491 87.4452 110.491C65.2074 110.491 41.3391 97.7115 30.9069 91.4005C27.5488 89.3674 25.5097 85.7615 25.5097 81.882V55.3054H132.869Z" fill="#F44444"/>
<path d="M131.307 103.686C128.152 104.026 125.246 105.383 123.135 107.501C121.026 109.62 119.86 112.353 119.856 115.185V125.404C119.856 129.546 122.335 133.375 126.362 135.446C130.389 137.518 135.35 137.518 139.376 135.446C143.403 133.375 145.883 129.546 145.883 125.404V115.185C145.88 112.353 144.713 109.62 142.603 107.501C140.494 105.383 137.586 104.026 134.431 103.686" fill="#392C7D"/>
<path d="M142.758 116.549H122.98V115.31C122.98 110.443 127.408 106.498 132.869 106.498C138.33 106.498 142.758 110.444 142.758 115.31V116.549Z" fill="white"/>
<path d="M132.869 58.5409V118.503" stroke="#392C7D" stroke-width="3" stroke-miterlimit="10" stroke-linecap="round"/>
<path d="M166.155 51.3281L91.2482 83.1066C88.7257 84.1767 85.7958 84.174 83.2757 83.0991L7.96042 50.976C0.978126 47.9979 0.941051 39.1518 7.89806 36.1271L83.1725 3.40173C85.7503 2.28099 88.7657 2.28888 91.3363 3.42313L166.284 36.4935C173.206 39.5479 173.129 48.3696 166.155 51.3281Z" fill="#392C7D"/>
<path d="M87.2303 3.95034C88.2626 3.95034 89.2943 4.15612 90.2436 4.5677L166.966 37.8202C172.045 40.0219 171.989 46.381 166.871 48.5141L90.1796 80.4729C89.2565 80.8575 88.2583 81.05 87.2606 81.05C86.2578 81.05 85.2559 80.856 84.329 80.4677L7.22968 48.167C2.10547 46.0203 2.0785 39.6435 7.18376 37.4632L84.2524 4.55221C85.1923 4.15096 86.2115 3.95034 87.2303 3.95034ZM87.2303 1C85.6946 1 84.1542 1.31163 82.7747 1.90059L5.70616 34.8116C2.17161 36.3211 -0.0146725 39.3968 7.41323e-05 42.8387C0.0148207 46.2807 2.22723 49.342 5.77441 50.8282L82.8733 83.1285C84.2346 83.6987 85.7514 84 87.2602 84C88.7618 84 90.2723 83.7013 91.6281 83.1363L168.319 51.1775C171.862 49.7009 174.083 46.6502 174.113 43.2153C174.144 39.7807 171.978 36.7002 168.461 35.176L91.7393 1.92382C90.3452 1.31937 88.7858 1 87.2303 1Z" fill="#392C7D"/>
<path d="M211.471 57.8125C211.206 55.3314 210.089 53.3996 208.119 52.017C206.168 50.6345 203.63 49.9432 200.505 49.9432C198.308 49.9432 196.424 50.2746 194.852 50.9375C193.28 51.6004 192.077 52.5 191.244 53.6364C190.411 54.7727 189.984 56.0701 189.965 57.5284C189.965 58.7405 190.24 59.7917 190.789 60.6818C191.357 61.572 192.125 62.3295 193.09 62.9545C194.056 63.5606 195.126 64.072 196.301 64.4886C197.475 64.9053 198.659 65.2557 199.852 65.5398L205.306 66.9034C207.503 67.4148 209.615 68.1061 211.642 68.9773C213.687 69.8485 215.515 70.947 217.125 72.2727C218.753 73.5985 220.041 75.1989 220.988 77.0739C221.935 78.9489 222.409 81.1458 222.409 83.6648C222.409 87.0739 221.537 90.0758 219.795 92.6705C218.053 95.2462 215.534 97.2633 212.238 98.7216C208.962 100.161 204.994 100.881 200.335 100.881C195.808 100.881 191.878 100.18 188.545 98.7784C185.231 97.3769 182.636 95.3314 180.761 92.642C178.905 89.9527 177.901 86.6761 177.75 82.8125H188.119C188.27 84.839 188.895 86.5246 189.994 87.8693C191.092 89.214 192.522 90.2178 194.284 90.8807C196.064 91.5436 198.053 91.875 200.25 91.875C202.541 91.875 204.549 91.5341 206.272 90.8523C208.015 90.1515 209.378 89.1856 210.363 87.9545C211.348 86.7045 211.85 85.2462 211.869 83.5795C211.85 82.0644 211.405 80.8144 210.534 79.8295C209.662 78.8258 208.441 77.9924 206.869 77.3295C205.316 76.6477 203.498 76.0417 201.414 75.5114L194.795 73.8068C190.003 72.5758 186.215 70.7102 183.431 68.2102C180.666 65.6913 179.284 62.3485 179.284 58.1818C179.284 54.7538 180.212 51.7519 182.068 49.1761C183.943 46.6004 186.49 44.6023 189.71 43.1818C192.929 41.7424 196.575 41.0227 200.647 41.0227C204.776 41.0227 208.393 41.7424 211.5 43.1818C214.625 44.6023 217.077 46.5814 218.857 49.1193C220.638 51.6383 221.556 54.536 221.613 57.8125H211.471ZM253.14 56.3636V64.3182H228.055V56.3636H253.14ZM234.248 45.9091H244.532V86.875C244.532 88.2576 244.741 89.3182 245.157 90.0568C245.593 90.7765 246.161 91.2689 246.862 91.5341C247.563 91.7992 248.339 91.9318 249.191 91.9318C249.835 91.9318 250.422 91.8845 250.953 91.7898C251.502 91.6951 251.919 91.6098 252.203 91.5341L253.936 99.5739C253.386 99.7633 252.6 99.9716 251.578 100.199C250.574 100.426 249.343 100.559 247.884 100.597C245.309 100.672 242.989 100.284 240.924 99.4318C238.86 98.5606 237.222 97.2159 236.009 95.3977C234.816 93.5795 234.229 91.3068 234.248 88.5795V45.9091ZM289.554 81.6477V56.3636H299.838V100H289.866V92.2443H289.411C288.427 94.6875 286.807 96.6856 284.554 98.2386C282.319 99.7917 279.563 100.568 276.286 100.568C273.427 100.568 270.898 99.9337 268.701 98.6648C266.523 97.3769 264.819 95.5114 263.588 93.0682C262.357 90.6061 261.741 87.6326 261.741 84.1477V56.3636H272.025V82.5568C272.025 85.322 272.783 87.5189 274.298 89.1477C275.813 90.7765 277.802 91.5909 280.264 91.5909C281.779 91.5909 283.247 91.2216 284.667 90.483C286.088 89.7443 287.252 88.6458 288.161 87.1875C289.09 85.7102 289.554 83.8636 289.554 81.6477ZM326.606 100.767C323.178 100.767 320.11 99.8864 317.402 98.125C314.693 96.3636 312.553 93.8068 310.981 90.4545C309.409 87.1023 308.623 83.0303 308.623 78.2386C308.623 73.3902 309.419 69.2992 311.009 65.9659C312.619 62.6136 314.788 60.0852 317.515 58.3807C320.242 56.6572 323.282 55.7955 326.634 55.7955C329.191 55.7955 331.294 56.2311 332.941 57.1023C334.589 57.9545 335.896 58.9867 336.862 60.1989C337.828 61.392 338.576 62.5189 339.106 63.5795H339.532V41.8182H349.845V100H339.731V93.125H339.106C338.576 94.1856 337.809 95.3125 336.805 96.5057C335.801 97.6799 334.475 98.6837 332.828 99.517C331.18 100.35 329.106 100.767 326.606 100.767ZM329.475 92.3295C331.653 92.3295 333.509 91.7424 335.044 90.5682C336.578 89.375 337.742 87.7178 338.538 85.5966C339.333 83.4754 339.731 81.0038 339.731 78.1818C339.731 75.3598 339.333 72.9072 338.538 70.8239C337.761 68.7405 336.606 67.1212 335.072 65.9659C333.557 64.8106 331.691 64.233 329.475 64.233C327.184 64.233 325.271 64.8295 323.737 66.0227C322.203 67.2159 321.047 68.8636 320.271 70.9659C319.494 73.0682 319.106 75.4735 319.106 78.1818C319.106 80.9091 319.494 83.3428 320.271 85.483C321.066 87.6042 322.231 89.2803 323.765 90.5114C325.318 91.7235 327.222 92.3295 329.475 92.3295ZM367.196 116.364C365.794 116.364 364.497 116.25 363.304 116.023C362.129 115.814 361.192 115.568 360.491 115.284L362.877 107.273C364.374 107.708 365.709 107.917 366.883 107.898C368.057 107.879 369.09 107.509 369.98 106.79C370.889 106.089 371.656 104.915 372.281 103.267L373.161 100.909L357.338 56.3636H368.247L378.304 89.3182H378.758L388.843 56.3636H399.781L382.309 105.284C381.495 107.595 380.415 109.574 379.071 111.222C377.726 112.888 376.078 114.157 374.127 115.028C372.196 115.919 369.885 116.364 367.196 116.364Z" fill="#392C7D"/>
<path d="M441.386 67.8977L432.011 68.9205C431.746 67.9735 431.282 67.0833 430.619 66.25C429.975 65.4167 429.104 64.7443 428.005 64.233C426.907 63.7216 425.562 63.4659 423.971 63.4659C421.831 63.4659 420.032 63.9299 418.573 64.858C417.134 65.786 416.424 66.9886 416.443 68.4659C416.424 69.7348 416.888 70.767 417.835 71.5625C418.801 72.358 420.392 73.0114 422.607 73.5227L430.051 75.1136C434.179 76.0038 437.248 77.4148 439.255 79.3466C441.282 81.2784 442.304 83.8068 442.323 86.9318C442.304 89.678 441.5 92.1023 439.909 94.2045C438.337 96.2879 436.149 97.9167 433.346 99.0909C430.543 100.265 427.323 100.852 423.687 100.852C418.346 100.852 414.047 99.7348 410.789 97.5C407.532 95.2462 405.59 92.1117 404.965 88.0966L414.994 87.1307C415.448 89.1004 416.414 90.5871 417.892 91.5909C419.369 92.5947 421.291 93.0966 423.659 93.0966C426.102 93.0966 428.062 92.5947 429.539 91.5909C431.036 90.5871 431.784 89.3466 431.784 87.8693C431.784 86.6193 431.301 85.5871 430.335 84.7727C429.388 83.9583 427.911 83.3333 425.903 82.8977L418.46 81.3352C414.274 80.464 411.178 78.9962 409.17 76.9318C407.162 74.8485 406.168 72.2159 406.187 69.0341C406.168 66.3447 406.897 64.0152 408.375 62.0455C409.871 60.0568 411.945 58.5227 414.596 57.4432C417.267 56.3447 420.344 55.7955 423.829 55.7955C428.943 55.7955 432.967 56.8845 435.903 59.0625C438.857 61.2405 440.685 64.1856 441.386 67.8977ZM450.804 116.364V56.3636H460.917V63.5795H461.514C462.044 62.5189 462.792 61.392 463.758 60.1989C464.724 58.9867 466.031 57.9545 467.679 57.1023C469.326 56.2311 471.429 55.7955 473.985 55.7955C477.357 55.7955 480.396 56.6572 483.105 58.3807C485.832 60.0852 487.991 62.6136 489.582 65.9659C491.192 69.2992 491.997 73.3902 491.997 78.2386C491.997 83.0303 491.211 87.1023 489.639 90.4545C488.067 93.8068 485.927 96.3636 483.218 98.125C480.51 99.8864 477.442 100.767 474.014 100.767C471.514 100.767 469.44 100.35 467.792 99.517C466.144 98.6837 464.819 97.6799 463.815 96.5057C462.83 95.3125 462.063 94.1856 461.514 93.125H461.088V116.364H450.804ZM460.889 78.1818C460.889 81.0038 461.286 83.4754 462.082 85.5966C462.896 87.7178 464.061 89.375 465.576 90.5682C467.11 91.7424 468.966 92.3295 471.144 92.3295C473.417 92.3295 475.321 91.7235 476.855 90.5114C478.389 89.2803 479.544 87.6042 480.321 85.483C481.116 83.3428 481.514 80.9091 481.514 78.1818C481.514 75.4735 481.125 73.0682 480.349 70.9659C479.572 68.8636 478.417 67.2159 476.883 66.0227C475.349 64.8295 473.436 64.233 471.144 64.233C468.947 64.233 467.082 64.8106 465.548 65.9659C464.014 67.1212 462.849 68.7405 462.054 70.8239C461.277 72.9072 460.889 75.3598 460.889 78.1818ZM513.36 100.881C510.595 100.881 508.105 100.388 505.889 99.4034C503.692 98.3996 501.949 96.9223 500.661 94.9716C499.393 93.0208 498.758 90.6155 498.758 87.7557C498.758 85.2936 499.213 83.2576 500.122 81.6477C501.031 80.0379 502.271 78.75 503.843 77.7841C505.415 76.8182 507.186 76.089 509.156 75.5966C511.144 75.0852 513.199 74.7159 515.321 74.4886C517.877 74.2235 519.951 73.9867 521.542 73.7784C523.133 73.5511 524.288 73.2102 525.008 72.7557C525.747 72.2822 526.116 71.553 526.116 70.5682V70.3977C526.116 68.2576 525.482 66.6004 524.213 65.4261C522.944 64.2519 521.116 63.6648 518.73 63.6648C516.211 63.6648 514.213 64.214 512.735 65.3125C511.277 66.411 510.292 67.7083 509.781 69.2045L500.179 67.8409C500.936 65.1894 502.186 62.9735 503.929 61.1932C505.671 59.3939 507.802 58.0492 510.321 57.1591C512.84 56.25 515.624 55.7955 518.673 55.7955C520.775 55.7955 522.868 56.0417 524.951 56.5341C527.035 57.0265 528.938 57.8409 530.661 58.9773C532.385 60.0947 533.768 61.6193 534.809 63.5511C535.87 65.483 536.4 67.8977 536.4 70.7955V100H526.514V94.0057H526.173C525.548 95.2178 524.667 96.3542 523.531 97.4148C522.413 98.4564 521.002 99.2992 519.298 99.9432C517.612 100.568 515.633 100.881 513.36 100.881ZM516.031 93.3239C518.095 93.3239 519.885 92.9167 521.4 92.1023C522.915 91.2689 524.08 90.1705 524.894 88.8068C525.728 87.4432 526.144 85.9564 526.144 84.3466V79.2045C525.822 79.4697 525.273 79.7159 524.497 79.9432C523.739 80.1705 522.887 80.3693 521.94 80.5398C520.993 80.7102 520.055 80.8617 519.127 80.9943C518.199 81.1269 517.394 81.2405 516.713 81.3352C515.179 81.5436 513.805 81.8845 512.593 82.358C511.381 82.8314 510.425 83.4943 509.724 84.3466C509.023 85.1799 508.673 86.2595 508.673 87.5852C508.673 89.4792 509.364 90.9091 510.747 91.875C512.129 92.8409 513.891 93.3239 516.031 93.3239ZM565.775 100.852C561.419 100.852 557.679 99.8958 554.554 97.983C551.447 96.0701 549.052 93.428 547.366 90.0568C545.699 86.6667 544.866 82.7652 544.866 78.3523C544.866 73.9205 545.718 70.0095 547.423 66.6193C549.127 63.2102 551.533 60.5587 554.639 58.6648C557.764 56.7519 561.457 55.7955 565.718 55.7955C569.26 55.7955 572.394 56.4489 575.122 57.7557C577.868 59.0436 580.055 60.8712 581.684 63.2386C583.313 65.5871 584.241 68.3333 584.468 71.4773H574.639C574.241 69.375 573.294 67.6231 571.798 66.2216C570.321 64.8011 568.341 64.0909 565.86 64.0909C563.758 64.0909 561.911 64.6591 560.321 65.7955C558.73 66.9129 557.489 68.5227 556.599 70.625C555.728 72.7273 555.292 75.2462 555.292 78.1818C555.292 81.1553 555.728 83.7121 556.599 85.8523C557.47 87.9735 558.692 89.6117 560.264 90.767C561.855 91.9034 563.72 92.4716 565.86 92.4716C567.375 92.4716 568.73 92.1875 569.923 91.6193C571.135 91.0322 572.148 90.1894 572.963 89.0909C573.777 87.9924 574.336 86.6572 574.639 85.0852H584.468C584.222 88.1723 583.313 90.9091 581.741 93.2955C580.169 95.6629 578.029 97.5189 575.321 98.8636C572.612 100.189 569.43 100.852 565.775 100.852ZM612.231 100.852C607.856 100.852 604.078 99.9432 600.896 98.125C597.733 96.2879 595.299 93.6932 593.595 90.3409C591.89 86.9697 591.038 83.0019 591.038 78.4375C591.038 73.9489 591.89 70.0095 593.595 66.6193C595.318 63.2102 597.723 60.5587 600.811 58.6648C603.898 56.7519 607.525 55.7955 611.691 55.7955C614.381 55.7955 616.919 56.2311 619.305 57.1023C621.71 57.9545 623.831 59.2803 625.669 61.0795C627.525 62.8788 628.983 65.1705 630.044 67.9545C631.104 70.7197 631.634 74.0152 631.634 77.8409V80.9943H595.867V74.0625H621.777C621.758 72.0928 621.331 70.3409 620.498 68.8068C619.665 67.2538 618.5 66.0322 617.004 65.142C615.527 64.2519 613.803 63.8068 611.833 63.8068C609.731 63.8068 607.884 64.3182 606.294 65.3409C604.703 66.3447 603.462 67.6705 602.572 69.3182C601.701 70.947 601.256 72.7367 601.237 74.6875V80.7386C601.237 83.2765 601.701 85.4545 602.629 87.2727C603.557 89.072 604.854 90.4545 606.521 91.4205C608.188 92.3674 610.138 92.8409 612.373 92.8409C613.869 92.8409 615.223 92.6326 616.436 92.2159C617.648 91.7803 618.699 91.1458 619.589 90.3125C620.479 89.4792 621.152 88.447 621.606 87.2159L631.208 88.2955C630.602 90.8333 629.447 93.0492 627.742 94.9432C626.057 96.8182 623.898 98.2765 621.265 99.3182C618.633 100.341 615.621 100.852 612.231 100.852Z" fill="#F44444"/>
</g>
<defs>
<clipPath id="clip0_6_16">
<rect width="665" height="137" fill="white"/>
</clipPath>
</defs>
</svg>
